# xmcd CD database file
#
# Track frame offsets:
#	150
#	30654
#	54679
#	89902
#	116417
#	139824
#	172335
#	203615
#	230337
#	260799
#	290972
#
# Disc length: 4223 seconds
#
# Revision: 0
# Processed by: cddbd v1.5.2PL0 Copyright (c) Steve Scherf et al.
# Submitted via: CDex 1.51
#
DISCID=b0107d0b
DTITLE=Down to the Bone - Best Of
DYEAR=1900
DGENRE=Jazz
TTITLE0=Staten island groove
TTITLE1=Cellar funk
TTITLE2=The zodiac
TTITLE3=Black choice
TTITLE4=Gotta get back to you
TTITLE5=Brooklyn heights
TTITLE6=Electra glide
TTITLE7=I'll always hold you close (ft. Brian Auger)
TTITLE8=Carlito's way
TTITLE9=Pure funk
TTITLE10=Long way from Brooklyn
EXTD=
EXTT0=
EXTT1=
EXTT2=
EXTT3=
EXTT4=
EXTT5=
EXTT6=
EXTT7=
EXTT8=
EXTT9=
EXTT10=
PLAYORDER=
